<svg width="193" height="193" xmlns="http://www.w3.org/2000/svg" xmlns:xlink="http://www.w3.org/1999/xlink" xml:space="preserve" overflow="hidden"><g transform="translate(-1067 -316)"><path d="M1067 316 1260 316 1260 509 1067 509 1067 316Z" fill="#FFFFFF" fill-rule="evenodd"/><path d="M1081.19 442.449 1245.81 442.449 1245.81 382.551 1081.19 382.551 1081.19 442.449Z" stroke="#00ACEC" stroke-width="1.30865" stroke-miterlimit="2.613" fill="#FFFFFF" fill-rule="evenodd"/><path d="M1241.96 438.546 1241.96 414.183 1085.17 414.183 1085.17 438.546 1241.96 438.546ZM1133.23 411.76 1127.92 411.76 1125.8 405.703 1115.44 405.703 1113.32 411.76 1108.01 411.76 1116.64 386.052 1124.6 386.052 1133.23 411.76ZM1120.62 390.09 1116.77 401.396 1124.47 401.396 1120.62 390.09ZM1134.03 411.76 1138.94 411.76 1138.94 390.897 1149.43 411.76 1155.8 411.76 1155.8 386.051 1150.76 386.051 1150.76 404.626 1141.6 385.916 1134.03 385.916 1134.03 411.76ZM1172 386.186C1175.31 386.32 1176.64 386.859 1177.97 387.667 1179.3 388.475 1182.75 390.763 1182.75 398.434 1182.75 405.972 1180.63 408.125 1178.37 410.01 1176.25 411.76 1171.2 411.76 1171.2 411.76L1161.24 411.76 1161.24 386.186C1161.24 386.186 1168.68 386.051 1172 386.186ZM1166.29 390.358 1166.29 407.317 1172.26 407.317C1172.26 407.317 1173.86 407.452 1175.18 406.375 1176.25 405.568 1177.31 403.818 1177.44 402.069 1177.57 400.454 1177.84 394.801 1175.98 392.378 1174.52 390.358 1172.13 390.358 1171.6 390.358L1166.29 390.358ZM1182.22 386.186 1187.4 386.186 1194.17 406.646 1201.07 386.186 1206.38 386.186 1197.75 411.76 1190.58 411.76 1182.22 386.186ZM1207.57 386.186 1212.75 386.186 1212.75 411.76 1207.57 411.76 1207.57 386.186ZM1223.24 396.011 1232.67 386.186 1240.23 386.186 1228.02 398.165 1241.29 411.76 1233.86 411.76 1223.24 400.588 1223.24 411.76 1218.06 411.76 1218.06 386.186 1223.24 386.186 1223.24 396.011ZM1102.43 394.127 1107.88 394.127C1107.88 394.127 1108.01 390.492 1106.55 388.608 1105.09 386.588 1102.7 385.916 1100.71 385.512 1098.58 385.243 1092.08 384.571 1088.63 387.262 1085.44 389.819 1085.97 393.185 1085.97 393.185 1085.97 393.185 1085.71 397.626 1089.69 399.241 1091.81 400.183 1096.19 400.453 1096.19 400.453 1096.19 400.453 1099.65 400.856 1100.71 401.261 1101.77 401.664 1102.7 402.471 1102.7 403.952 1102.7 405.433 1102.3 406.509 1101.5 407.183 1100.71 407.856 1099.91 408.26 1097.52 408.26 1095.13 408.26 1093.54 407.452 1093.01 406.914 1092.48 406.375 1091.68 405.164 1091.55 404.087L1091.55 402.472 1085.84 402.472C1085.84 402.472 1085.57 405.703 1087.17 408.261 1088.89 410.684 1091.55 411.357 1092.88 411.626 1094.2 412.029 1095.93 412.166 1097.52 412.166 1098.98 412.166 1102.17 412.03 1104.82 410.28 1107.35 408.531 1108.14 406.377 1108.14 403.685 1108.14 400.858 1107.35 399.647 1106.15 398.705 1104.96 397.627 1103.1 397.09 1100.97 396.685 1098.98 396.416 1098.05 396.55 1096.2 396.281 1094.2 396.012 1092.61 395.878 1091.95 394.531 1091.28 393.186 1091.28 391.435 1092.61 390.224 1093.94 388.878 1096.33 389.012 1096.99 389.012 1097.52 389.012 1100.04 389.146 1101.11 390.224 1102.03 391.434 1102.43 391.973 1102.43 394.127Z" fill="#00ACEC" fill-rule="evenodd"/></g></svg>