<svg width="118" height="109" xmlns="http://www.w3.org/2000/svg" xmlns:xlink="http://www.w3.org/1999/xlink" xml:space="preserve" overflow="hidden"><g transform="translate(-780 -366)"><path d="M51.3094 0C79.6476 0 102.616 22.9016 102.616 51.1542 102.616 79.4067 79.645 102.308 51.3094 102.308 22.9737 102.308 0 79.4067 0 51.1542 0 22.9016 22.9711 0 51.3094 0Z" fill="#0074C8" fill-rule="evenodd" transform="matrix(1 0 0 1.00734 787.691 368.97)"/><path d="M48.8903 39.7738 48.8903 45.5086 23.4718 45.5086C20.8011 45.5086 20.9844 48.7513 23.4718 48.7513L43.3885 48.7513C47.9356 48.9286 49.8119 51.0504 49.8119 55.9875 49.8119 60.9246 48.1774 63.268 43.3885 63.6382L15.8493 63.6382 15.8493 57.8122 42.2836 57.8122C45.0842 57.8122 44.8983 54.6659 42.2836 54.6659L22.9193 54.6659C18.2883 54.6659 15.8518 51.9914 15.8518 47.2394 15.8518 41.794 18.5708 39.7765 22.9193 39.7765Z" fill="#FFFFFF" fill-rule="evenodd" transform="matrix(1 0 0 1.00734 787.691 368.97)"/><path d="M57.3778 45.5327 57.3778 57.8525 76.9848 57.8525C80.316 57.8525 81.0681 56.0396 81.0681 51.6913 81.0681 47.2523 79.8085 45.5302 76.1963 45.5302ZM50.9054 30.6827 57.284 30.6827 57.284 39.8403 76.761 39.8403C83.9283 39.8403 87.1705 43.624 87.1705 51.1293 87.1705 59.4426 85.1594 63.6382 77.0863 63.6382L50.9054 63.6382Z" fill="#FFFFFF" fill-rule="evenodd" transform="matrix(1 0 0 1.00734 787.691 368.97)"/><path d="M17.3364 36.7329 16.9376 36.7329 16.9376 33.7881 18.983 33.7881 18.983 34.1395 17.3364 34.1395 17.3364 35.0425 18.785 35.0425 18.785 35.3964 17.3364 35.3964Z" fill="#FFFFFF" fill-rule="evenodd" transform="matrix(1 0 0 1.00734 787.691 368.97)"/><path d="M21.7901 35.5222 21.3553 34.2268 21.3553 34.2268 20.8819 35.5222ZM20.761 35.8762 20.4522 36.7329 20.0406 36.7329 21.1521 33.7855 21.6049 33.7855 22.6753 36.7329 22.2378 36.7329 21.9445 35.8762Z" fill="#FFFFFF" fill-rule="evenodd" transform="matrix(1 0 0 1.00734 787.691 368.97)"/><path d="M24.623 35.1297 25.5492 35.1297C25.6225 35.13 25.6956 35.1239 25.7679 35.1118 25.8358 35.1003 25.9007 35.0749 25.9583 35.0374 26.0168 34.9985 26.0646 34.9456 26.0972 34.8834 26.1699 34.713 26.1699 34.5204 26.0972 34.3499 26.0654 34.2893 26.0185 34.2381 25.9609 34.2011 25.9084 34.1686 25.8497 34.1476 25.7885 34.1395 25.7328 34.1358 25.677 34.1358 25.6213 34.1395L24.623 34.1395 24.623 35.14ZM24.623 36.7329 24.2241 36.7329 24.2241 33.7881 25.5903 33.7881C25.7096 33.7878 25.8287 33.7998 25.9454 33.8241 26.0561 33.8464 26.1617 33.889 26.2567 33.9497 26.3495 34.0104 26.4257 34.0933 26.478 34.1908 26.5385 34.3109 26.5677 34.4441 26.5629 34.5782 26.5655 34.6727 26.5533 34.767 26.5269 34.8578 26.4873 34.99 26.4061 35.106 26.2954 35.1887 26.2492 35.2239 26.2011 35.2564 26.1512 35.2862 26.1934 35.3027 26.2346 35.3216 26.2748 35.3426 26.3174 35.3658 26.355 35.3972 26.3854 35.4349 26.4218 35.4816 26.4488 35.5347 26.4652 35.5914 26.4889 35.675 26.5018 35.7611 26.5037 35.848L26.5295 36.3815C26.5271 36.4165 26.5271 36.4517 26.5295 36.4866 26.5334 36.5133 26.5412 36.5392 26.5526 36.5636 26.5639 36.5869 26.5797 36.6078 26.599 36.6252 26.6216 36.6453 26.6467 36.6625 26.6736 36.6765L26.6736 36.7432 26.1847 36.7432C26.1679 36.6861 26.1559 36.6278 26.1487 36.5687 26.1384 36.4969 26.1306 36.4234 26.1255 36.3482 26.1204 36.2729 26.1204 36.2036 26.1255 36.1403L26.1255 36.0019C26.1251 35.94 26.1199 35.8783 26.1101 35.8172 26.101 35.756 26.0772 35.6978 26.0406 35.6479 25.9992 35.5936 25.9442 35.5511 25.8811 35.5247 25.791 35.4899 25.6946 35.4742 25.5981 35.4786L24.623 35.4786 24.623 36.7432Z" fill="#FFFFFF" fill-rule="evenodd" transform="matrix(1 0 0 1.00734 787.691 368.97)"/><path d="M30.7285 36.7329 30.7285 34.9937 30.7285 34.8809 30.7285 34.6962 30.7285 34.4756 30.7285 34.2576 29.8975 36.7329 29.5012 36.7329 28.6702 34.2627 28.6702 34.4807 28.6702 34.6988 28.6702 34.8809 28.6702 34.9937 28.6702 36.7329 28.2843 36.7329 28.2843 33.7881 28.8554 33.7881 29.6993 36.2789 30.5381 33.7881 31.1067 33.7881 31.1067 36.7329Z" fill="#FFFFFF" fill-rule="evenodd" transform="matrix(1 0 0 1.00734 787.691 368.97)"/><path d="M34.3821 35.5222 33.9447 34.2268 33.9447 34.2268 33.4712 35.5222ZM33.3529 35.8762 33.0441 36.7329 32.6324 36.7329 33.744 33.7855 34.1968 33.7855 35.2492 36.7329 34.8117 36.7329 34.5184 35.8762Z" fill="#FFFFFF" fill-rule="evenodd" transform="matrix(1 0 0 1.00734 787.691 368.97)"/><path d="M38.7355 34.6731C38.7141 34.56 38.6675 34.453 38.5991 34.3602 38.542 34.2843 38.4703 34.2207 38.3881 34.1729 38.3082 34.1289 38.2211 34.0993 38.1308 34.0857 38.0536 34.0712 37.9753 34.0635 37.8967 34.0626 37.7677 34.0618 37.6399 34.0872 37.521 34.137 37.4039 34.1869 37.2992 34.2623 37.2148 34.3576 37.1214 34.4637 37.0505 34.5877 37.0064 34.7219 36.9523 34.8874 36.9261 35.0608 36.9293 35.2349 36.9281 35.3978 36.9445 35.5603 36.9781 35.7197 37.0064 35.8593 37.0624 35.9918 37.1429 36.1096 37.221 36.219 37.3254 36.3072 37.4464 36.3661 37.5913 36.4331 37.7498 36.4656 37.9095 36.461 37.9843 36.4597 38.0586 36.4493 38.1308 36.4302 38.2235 36.4081 38.3109 36.3679 38.3881 36.3123 38.4785 36.2418 38.5546 36.1547 38.612 36.0557 38.6887 35.9281 38.7403 35.7871 38.7638 35.6402L39.1497 35.6402C39.1286 35.8038 39.0817 35.9631 39.0107 36.1121 38.9541 36.2305 38.8794 36.3396 38.7895 36.4354 38.7147 36.5157 38.6279 36.584 38.5322 36.638 38.4503 36.6832 38.3641 36.7202 38.2749 36.7483 38.1977 36.7716 38.1185 36.787 38.0382 36.7945L37.8787 36.7945C37.7119 36.7941 37.5464 36.7645 37.3898 36.7073 37.229 36.6493 37.0831 36.5565 36.9627 36.4354 36.8289 36.2969 36.7263 36.1317 36.6617 35.9506 36.5808 35.7181 36.5424 35.4731 36.5484 35.2272 36.5462 35.0165 36.5784 34.8068 36.6437 34.6064 36.7016 34.4284 36.7942 34.2636 36.9164 34.1216 37.0359 33.9853 37.1845 33.8775 37.3513 33.806 37.6959 33.6663 38.0797 33.6554 38.4319 33.7753 38.5667 33.824 38.6915 33.897 38.7998 33.9908 38.898 34.0771 38.9784 34.1816 39.0365 34.2986 39.0934 34.411 39.1299 34.5326 39.1446 34.6577Z" fill="#FFFFFF" fill-rule="evenodd" transform="matrix(1 0 0 1.00734 787.691 368.97)"/><path d="M41.079 36.7329 40.8453 36.7329 40.8453 33.7881 41.079 33.7881Z" fill="#FFFFFF" fill-rule="evenodd" transform="matrix(1 0 0 1.00734 787.691 368.97)"/><path d="M44.5837 35.5222 44.1463 34.2268 44.1463 34.2268 43.673 35.5222ZM43.5546 35.8762 43.2252 36.7329 42.8136 36.7329 43.925 33.7855 44.3779 33.7855 45.4482 36.7329 45.0262 36.7329 44.733 35.8762Z" fill="#FFFFFF" fill-rule="evenodd" transform="matrix(1 0 0 1.00734 787.691 368.97)"/><path d="M48.6927 34.6501C48.6931 34.5539 48.6711 34.4591 48.6284 34.373 48.5858 34.2991 48.5268 34.236 48.456 34.1883 48.3855 34.1418 48.307 34.1088 48.2244 34.0908 48.14 34.0717 48.0537 34.0622 47.9671 34.0626 47.8965 34.0632 47.8259 34.0691 47.7562 34.0805 47.6787 34.0925 47.6039 34.1178 47.5349 34.1549 47.4657 34.1926 47.4066 34.2463 47.3625 34.3114 47.3148 34.3884 47.2906 34.4775 47.293 34.5679 47.2911 34.6226 47.3017 34.6769 47.3239 34.727 47.3429 34.7679 47.3701 34.8045 47.4036 34.8347 47.4365 34.863 47.474 34.8855 47.5143 34.9014 47.5562 34.918 47.5991 34.9317 47.643 34.9424L48.4869 35.1348C48.576 35.1564 48.6624 35.1883 48.7442 35.2297 48.9068 35.3082 49.0329 35.446 49.0966 35.6145 49.1329 35.713 49.1503 35.8174 49.1481 35.9223 49.1545 36.075 49.1171 36.2263 49.04 36.3584 48.9699 36.4703 48.8737 36.5635 48.7596 36.6303 48.6432 36.698 48.5162 36.7458 48.384 36.7714 48.1382 36.8214 47.8854 36.8266 47.6378 36.7868 47.5498 36.7729 47.4635 36.7496 47.3805 36.7175 47.3196 36.6936 47.2618 36.6626 47.2082 36.6251 47.1669 36.5959 47.1273 36.5642 47.0898 36.5302 46.9731 36.438 46.8841 36.3156 46.8325 36.1762 46.7943 36.0489 46.7751 35.9167 46.7759 35.7838L47.1515 35.7838C47.1471 35.8995 47.1728 36.0143 47.2261 36.1173 47.2724 36.2011 47.3376 36.2731 47.4166 36.3276 47.4944 36.381 47.5817 36.4193 47.6738 36.4405 47.7683 36.4624 47.8649 36.4736 47.962 36.4738 48.0429 36.4732 48.1237 36.4671 48.2038 36.4559 48.2927 36.4448 48.3794 36.4206 48.4612 36.3841 48.5377 36.3502 48.6055 36.2994 48.6592 36.2352 48.7157 36.162 48.7439 36.071 48.739 35.9788 48.7407 35.9124 48.7303 35.8464 48.7081 35.7838 48.687 35.7292 48.6515 35.6814 48.6052 35.6453 48.5468 35.6017 48.4816 35.5679 48.4123 35.5453 48.3316 35.5161 48.2304 35.4871 48.1087 35.4581L47.504 35.3195C47.4429 35.3045 47.3827 35.2857 47.3239 35.2631 47.2494 35.235 47.1799 35.1952 47.1181 35.1451 47.0491 35.0889 46.9914 35.0202 46.9482 34.9424 46.8968 34.8445 46.8719 34.7348 46.8762 34.6243 46.8758 34.51 46.895 34.3963 46.9328 34.2884 46.9706 34.1789 47.0321 34.079 47.1129 33.9959 47.2028 33.9061 47.3106 33.8362 47.4294 33.7907 47.5765 33.7359 47.7329 33.7097 47.8899 33.7137 48.0987 33.7054 48.3071 33.7394 48.5023 33.8137 48.6363 33.8702 48.7546 33.9583 48.8471 34.0703 48.9213 34.1595 48.9733 34.265 48.9988 34.3781 49.0203 34.4719 49.0349 34.567 49.0426 34.6629Z" fill="#FFFFFF" fill-rule="evenodd" transform="matrix(1 0 0 1.00734 787.691 368.97)"/><path d="M22.0346 67.607C22.0321 67.4465 21.9907 67.2889 21.9137 67.1479 21.8449 67.0297 21.7499 66.9287 21.6358 66.8529 21.5224 66.7771 21.3959 66.7232 21.2627 66.6939 21.131 66.6637 20.9964 66.6482 20.8613 66.6477 20.7475 66.6493 20.6339 66.6595 20.5217 66.6785 20.3983 66.6976 20.2792 66.7376 20.1692 66.7965 20.0571 66.8583 19.9618 66.9464 19.8913 67.053 19.8102 67.1816 19.7706 67.332 19.7781 67.4839 19.7745 67.572 19.7912 67.6597 19.827 67.7404 19.8577 67.8058 19.9015 67.8643 19.9556 67.9123 20.0082 67.9581 20.0682 67.9945 20.1332 68.02 20.1993 68.0469 20.2672 68.0692 20.3364 68.0867L21.6872 68.3945C21.8352 68.4279 21.9785 68.4787 22.1144 68.5459 22.3745 68.6725 22.5762 68.8937 22.6778 69.1641 22.7357 69.3217 22.7636 69.4887 22.7602 69.6566 22.7693 69.9001 22.7086 70.1413 22.5852 70.3518 22.4733 70.531 22.3198 70.6805 22.1375 70.7878 21.9517 70.896 21.7491 70.9722 21.538 71.0136 21.1455 71.0926 20.742 71.1005 20.3468 71.0367 20.2094 71.0129 20.0748 70.9751 19.9454 70.9238 19.8472 70.8852 19.7539 70.8353 19.6675 70.775 19.6021 70.728 19.5394 70.6775 19.4797 70.6236 19.3006 70.4731 19.1656 70.2773 19.0885 70.0567 19.0278 69.8536 18.9974 69.6428 18.9985 69.4308L19.6058 69.4308C19.5988 69.6151 19.6395 69.798 19.7241 69.9619 19.8001 70.0914 19.9048 70.202 20.0302 70.2851 20.1567 70.3705 20.298 70.4314 20.447 70.4646 20.5981 70.4998 20.7526 70.5179 20.9076 70.5185 21.0376 70.5168 21.1674 70.5065 21.2962 70.4877 21.4357 70.4691 21.5718 70.4302 21.7001 70.3723 21.8224 70.3177 21.9306 70.2361 22.0166 70.1337 22.1069 70.0165 22.1525 69.8709 22.1452 69.7233 22.1479 69.6177 22.1313 69.5126 22.0963 69.4129 22.0626 69.3257 22.0057 69.2496 21.9316 69.1923 21.8382 69.1221 21.734 69.0675 21.6229 69.0306 21.4926 68.9845 21.3313 68.9375 21.1392 68.8896L20.1718 68.6665C20.073 68.6427 19.9759 68.6127 19.881 68.5766 19.7619 68.5322 19.6507 68.469 19.5517 68.3894 19.4408 68.2992 19.3482 68.1885 19.279 68.0636 19.1963 67.9055 19.1565 67.7287 19.1632 67.5506 19.1632 67.3671 19.1945 67.185 19.2558 67.0119 19.3212 66.8408 19.423 66.6859 19.5543 66.5579 19.7004 66.4132 19.8759 66.3012 20.0689 66.2295 20.3047 66.1408 20.5553 66.0981 20.8073 66.1038 21.1417 66.0905 21.4753 66.1455 21.7876 66.2655 22 66.3515 22.1888 66.487 22.3382 66.6604 22.4574 66.8032 22.5412 66.9719 22.5826 67.153 22.6167 67.3033 22.6399 67.4559 22.6521 67.6096Z" fill="#FFFFFF" fill-rule="evenodd" transform="matrix(1 0 0 1.00734 787.691 368.97)"/><path d="M28.1813 69.0024 27.484 66.9273 27.4712 66.9273 26.7121 69.0024ZM26.514 69.5668 26.02 70.9391 25.3613 70.9391 27.1393 66.2244 27.8648 66.2244 29.5887 70.9417 28.8914 70.9417 28.4232 69.5694Z" fill="#FFFFFF" fill-rule="evenodd" transform="matrix(1 0 0 1.00734 787.691 368.97)"/><path d="M32.4935 66.2295 33.1342 66.2295 33.1342 70.3774 35.5296 70.3774 35.5296 70.9417 32.4935 70.9417Z" fill="#FFFFFF" fill-rule="evenodd" transform="matrix(1 0 0 1.00734 787.691 368.97)"/><path d="M41.8101 67.6455C41.7787 67.4602 41.7047 67.2846 41.594 67.1325 41.502 67.0115 41.3866 66.9103 41.2544 66.8349 41.1329 66.7662 41.0007 66.7185 40.8633 66.6939 40.7394 66.671 40.6136 66.659 40.4876 66.6579 40.281 66.6561 40.0761 66.6963 39.8856 66.7759 39.6976 66.8553 39.5298 66.9753 39.3941 67.1274 39.2451 67.298 39.1322 67.4969 39.0622 67.7122 38.9766 67.9763 38.9358 68.2529 38.9413 68.5305 38.9404 68.7891 38.967 69.0471 39.0211 69.3 39.0646 69.5227 39.152 69.7346 39.2784 69.9234 39.4023 70.0993 39.5687 70.2413 39.7621 70.3364 39.9937 70.444 40.2476 70.4958 40.5031 70.4877 40.623 70.4857 40.7422 70.4693 40.8582 70.439 40.9991 70.4015 41.1317 70.3379 41.2492 70.2517 41.3929 70.1456 41.5151 70.0133 41.6094 69.8618 41.733 69.6572 41.816 69.4307 41.8538 69.1949L42.474 69.1949C42.4404 69.4563 42.3658 69.7109 42.2527 69.949 42.1612 70.1371 42.0414 70.3101 41.8976 70.462 41.7741 70.5921 41.6308 70.702 41.4731 70.7878 41.3356 70.8617 41.1907 70.921 41.0408 70.9648 40.9147 71.008 40.7845 71.0381 40.6523 71.0546 40.5391 71.0546 40.4516 71.0675 40.395 71.0675 40.1316 71.0658 39.8705 71.0189 39.6231 70.9289 39.3662 70.8357 39.1333 70.6867 38.9413 70.4928 38.7281 70.2732 38.5641 70.0108 38.4602 69.7233 38.3308 69.3507 38.2697 68.9579 38.2801 68.5638 38.276 68.226 38.3273 67.8899 38.4319 67.5686 38.5248 67.2861 38.6725 67.0246 38.8667 66.799 39.0566 66.5781 39.2941 66.4028 39.5614 66.286 40.1132 66.0636 40.7268 66.0463 41.2903 66.2373 41.5063 66.3147 41.7061 66.4313 41.8795 66.5809 42.0366 66.719 42.1651 66.8863 42.2578 67.0735 42.3486 67.2534 42.407 67.448 42.4302 67.6481Z" fill="#FFFFFF" fill-rule="evenodd" transform="matrix(1 0 0 1.00734 787.691 368.97)"/><path d="M49.9535 68.5869C49.9527 68.7676 49.9363 68.9478 49.9046 69.1256 49.8713 69.3168 49.8188 69.5042 49.7476 69.6848 49.6735 69.8661 49.5785 70.0383 49.4646 70.1978 49.3449 70.3676 49.199 70.5173 49.0323 70.6416 48.8509 70.7758 48.6483 70.879 48.4328 70.9468 47.9212 71.0958 47.3775 71.0958 46.8659 70.9468 46.6505 70.8791 46.4478 70.7759 46.2664 70.6416 46.0997 70.5173 45.9539 70.3676 45.8342 70.1978 45.7203 70.0383 45.6254 69.8661 45.5512 69.6848 45.48 69.5042 45.4274 69.3168 45.3942 69.1256 45.3283 68.7695 45.3283 68.4044 45.3942 68.0482 45.4274 67.857 45.48 67.6697 45.5512 67.4891 45.6254 67.3077 45.7203 67.1356 45.8342 66.976 45.9539 66.8062 46.0997 66.6565 46.2664 66.5322 46.4477 66.3978 46.6504 66.2946 46.8659 66.2269 47.3776 66.0781 47.9212 66.0781 48.4328 66.2269 48.6484 66.2946 48.851 66.3978 49.0323 66.5322 49.199 66.6565 49.3449 66.8062 49.4646 66.976 49.5784 67.1356 49.6734 67.3077 49.7476 67.4891 49.8188 67.6697 49.8713 67.857 49.9046 68.0482 49.9364 68.226 49.9527 68.4063 49.9535 68.5869ZM49.2948 68.5869C49.2973 68.3261 49.2592 68.0664 49.1816 67.8173 49.1134 67.5955 49.0024 67.3889 48.8548 67.2094 48.7146 67.0403 48.5389 66.9037 48.3402 66.8093 47.9008 66.617 47.4006 66.617 46.9611 66.8093 46.7626 66.9039 46.587 67.0405 46.4465 67.2094 46.2989 67.3889 46.1879 67.5955 46.1198 67.8173 45.9685 68.3193 45.9685 68.8545 46.1198 69.3564 46.1879 69.5784 46.2989 69.7849 46.4465 69.9644 46.587 70.1333 46.7626 70.2698 46.9611 70.3646 47.4006 70.5568 47.9008 70.5568 48.3402 70.3646 48.5389 70.2701 48.7145 70.1335 48.8548 69.9644 49.0024 69.7849 49.1134 69.5784 49.1816 69.3564 49.2592 69.1073 49.2973 68.8477 49.2948 68.5869Z" fill="#FFFFFF" fill-rule="evenodd" transform="matrix(1 0 0 1.00734 787.691 368.97)"/><path d="M53.679 70.3979 55.0427 70.3979C55.3138 70.4185 55.5826 70.335 55.794 70.1645 55.9672 70.0022 56.0611 69.7728 56.0513 69.536 56.0579 69.3952 56.024 69.2555 55.9535 69.1333 55.8896 69.0318 55.8012 68.948 55.6962 68.8896 55.5861 68.829 55.4657 68.789 55.3411 68.7716 55.21 68.7514 55.0776 68.741 54.9449 68.7409L53.6868 68.7409 53.6868 70.3954ZM53.0409 66.2295 55.1225 66.2295C55.3196 66.2256 55.5158 66.2579 55.7013 66.3245 55.8575 66.3799 56.0004 66.4673 56.1208 66.5809 56.2321 66.6873 56.3197 66.8157 56.3781 66.958 56.4354 67.1035 56.4642 67.2584 56.4629 67.4146 56.4628 67.5008 56.4542 67.5867 56.4372 67.6712 56.4176 67.7607 56.3856 67.847 56.342 67.9277 56.292 68.0223 56.2278 68.1088 56.1516 68.1842 56.0585 68.2731 55.9505 68.3452 55.8326 68.3971 55.9123 68.4279 55.9998 68.4664 56.0898 68.5151 56.1933 68.5666 56.2881 68.6341 56.3703 68.7152 56.4648 68.8093 56.5399 68.9208 56.5916 69.0435 56.6575 69.2063 56.6882 69.3811 56.6817 69.5566 56.6827 69.7405 56.6468 69.9227 56.5761 70.0927 56.5068 70.2605 56.4024 70.4117 56.2699 70.5364 56.1252 70.6703 55.9544 70.7733 55.7683 70.8391 55.5453 70.9179 55.31 70.9561 55.0736 70.952L53.0384 70.952 53.0384 66.2295ZM53.679 68.2252 54.8317 68.2252C55.0842 68.2386 55.3353 68.1818 55.5573 68.0611 55.7442 67.9222 55.8424 67.6942 55.8146 67.4634 55.8267 67.2665 55.7435 67.0758 55.5907 66.9503 55.3642 66.8119 55.099 66.7499 54.8343 66.7734L53.6764 66.7734 53.6764 68.233Z" fill="#FFFFFF" fill-rule="evenodd" transform="matrix(1 0 0 1.00734 787.691 368.97)"/><path d="M60.4973 68.3766 61.9793 68.3766C62.0966 68.3763 62.2136 68.366 62.3292 68.3458 62.4384 68.3281 62.5427 68.2879 62.6354 68.2278 62.73 68.1626 62.8062 68.0743 62.8567 67.9713 62.9735 67.6985 62.9735 67.3899 62.8567 67.1171 62.8054 67.0209 62.73 66.9397 62.638 66.8811 62.5542 66.8295 62.4603 66.7963 62.3626 66.7836 62.2774 66.7714 62.1915 66.7646 62.1054 66.7631L60.5127 66.7631 60.5127 68.3663ZM60.4973 70.9417 59.8592 70.9417 59.8592 66.2295 62.0462 66.2295C62.2373 66.2293 62.4279 66.249 62.6148 66.2886 62.7913 66.324 62.9597 66.3918 63.1114 66.4886 63.2597 66.5862 63.3809 66.7194 63.4639 66.876 63.5609 67.0682 63.6077 67.2817 63.6003 67.4968 63.6037 67.6477 63.5837 67.7982 63.541 67.9431 63.4784 68.154 63.3494 68.3392 63.1731 68.4715 63.0998 68.527 63.0233 68.5784 62.9441 68.6254 63.0119 68.6524 63.078 68.6833 63.1423 68.7178 63.2105 68.7554 63.2709 68.806 63.3198 68.8665 63.3784 68.9432 63.4221 69.0302 63.4485 69.1231 63.4854 69.2525 63.5061 69.3861 63.5102 69.5207L63.5488 70.3748C63.545 70.4304 63.545 70.486 63.5488 70.5415 63.5544 70.5851 63.5664 70.6274 63.5848 70.6672 63.6023 70.7041 63.6268 70.7372 63.6569 70.7647 63.6927 70.7969 63.7325 70.8246 63.7753 70.8468L63.7753 70.952 63.0033 70.952C62.9771 70.8605 62.9581 70.7669 62.9467 70.6724 62.9313 70.5569 62.9184 70.439 62.9107 70.321 62.903 70.2029 62.8978 70.0927 62.8953 69.9901 62.8927 69.8875 62.8953 69.813 62.8953 69.7694 62.8948 69.6706 62.8871 69.5721 62.8721 69.4745 62.857 69.376 62.8182 69.2827 62.7589 69.2026 62.6918 69.1155 62.6031 69.0474 62.5016 69.005 62.3583 68.9497 62.205 68.9243 62.0513 68.9306L60.5076 68.9306 60.5076 70.952Z" fill="#FFFFFF" fill-rule="evenodd" transform="matrix(1 0 0 1.00734 787.691 368.97)"/><path d="M69.2839 69.0024 68.5866 66.9273 68.5737 66.9273 67.8173 69.0024ZM67.6192 69.5668 67.1251 70.9391 66.4665 70.9391 68.2444 66.2244 68.9674 66.2244 70.6784 70.9391 69.9837 70.9391 69.5154 69.5668Z" fill="#FFFFFF" fill-rule="evenodd" transform="matrix(1 0 0 1.00734 787.691 368.97)"/><path d="M74.2316 67.1351 74.2187 67.1351 74.2187 70.9417 73.5986 70.9417 73.5986 66.2295 74.3551 66.2295 76.7196 70.0362 76.7325 70.0362 76.7325 66.2295 77.3526 66.2295 77.3526 70.9417 76.6347 70.9417Z" fill="#FFFFFF" fill-rule="evenodd" transform="matrix(1 0 0 1.00734 787.691 368.97)"/><path d="M81.3663 70.3979 82.6039 70.3979C82.9935 70.4112 83.365 70.2364 83.6024 69.9285 83.8771 69.5265 84.0086 69.0441 83.9755 68.5587 84.0119 68.0815 83.8762 67.607 83.5941 67.2197 83.3377 66.9217 82.9588 66.7572 82.5653 66.7734L81.3741 66.7734 81.3741 70.3979ZM80.7283 66.2295 82.6451 66.2295C82.9298 66.225 83.2127 66.2819 83.4733 66.3963 83.7141 66.5044 83.9283 66.6648 84.0988 66.8657 84.2766 67.0779 84.4115 67.3228 84.495 67.5865 84.591 67.8876 84.6373 68.2019 84.634 68.5176 84.6324 68.7948 84.6001 69.0709 84.5389 69.341 84.4785 69.6207 84.3668 69.8867 84.2096 70.126 83.8613 70.6586 83.2566 70.9678 82.6193 70.9391L80.7283 70.9391Z" fill="#FFFFFF" fill-rule="evenodd" transform="matrix(1 0 0 1.00734 787.691 368.97)"/><path d="M80.4478 32.1438C81.5643 30.4827 82.991 29.0511 84.6497 27.9268 86.6617 30.1122 89.1238 31.6924 91.805 32.2388 92.6381 30.5831 93.0567 28.7504 93.0245 26.8981 94.3605 26.2644 95.6172 25.4758 96.768 24.5484 100.553 24.7075 104.299 25.9337 107.338 28.3962 101.216 37.5948 87.3302 38.3746 80.4375 32.1438Z" fill="#FECA42" fill-rule="evenodd" transform="matrix(1 0 0 1.00734 787.691 368.97)"/><path d="M96.7779 24.5484C95.6271 25.4758 94.3705 26.2644 93.0344 26.8981 93.036 26.1811 92.9905 25.4647 92.8979 24.7537 94.1819 24.5633 95.4815 24.4946 96.7779 24.5484Z" fill="#F68F48" fill-rule="evenodd" transform="matrix(1 0 0 1.00734 787.691 368.97)"/><path d="M90.0528 16.7248C92.016 11.6817 96.3353 7.95453 102.624 6.25639 104.641 13.4824 102.009 20.3314 96.7779 24.551 95.4815 24.4971 94.1819 24.5659 92.8979 24.7563 92.5082 21.9138 91.5395 19.1809 90.0528 16.7248Z" fill="#B2C748" fill-rule="evenodd" transform="matrix(1 0 0 1.00734 787.691 368.97)"/><path d="M92.8979 24.7537C92.9905 25.4647 93.036 26.1811 93.0344 26.8981 91.8563 27.4583 90.6245 27.9 89.3579 28.2166 89.1866 27.3752 89.0584 26.5492 88.9749 25.7387 90.2472 25.2842 91.561 24.956 92.8979 24.7588Z" fill="#B78BB3" fill-rule="evenodd" transform="matrix(1 0 0 1.00734 787.691 368.97)"/><path d="M90.0528 16.7248C91.5403 19.1799 92.5099 21.912 92.9012 24.7537 91.5635 24.9509 90.2497 25.2791 88.9773 25.7335 88.6348 22.4322 89.0129 19.395 90.0528 16.7248Z" fill="#0091C3" fill-rule="evenodd" transform="matrix(1 0 0 1.00734 787.691 368.97)"/><path d="M91.815 32.2388C89.1312 31.6924 86.6692 30.1122 84.6597 27.9268 85.9982 27.0146 87.4493 26.2783 88.9773 25.7361 89.0609 26.5467 89.1891 27.3727 89.3604 28.2141 90.627 27.8982 91.8588 27.4574 93.0369 26.8981 93.07 28.7504 92.6514 30.5831 91.8174 32.2388Z" fill="#EE3F38" fill-rule="evenodd" transform="matrix(1 0 0 1.00734 787.691 368.97)"/><path d="M84.6497 27.9268C80.2137 23.0864 77.9598 15.3062 80.3526 9.16528 84.366 9.93483 87.7778 12.9514 90.0503 16.7222 89.0212 19.3925 88.6324 22.4322 88.9749 25.731 87.4444 26.2742 85.99 27.0122 84.6497 27.9268Z" fill="#00ACDB" fill-rule="evenodd" transform="matrix(1 0 0 1.00734 787.691 368.97)"/></g></svg>